<svg width="20" height="20" viewBox="0 0 33 30" fill="none" xmlns="http://www.w3.org/2000/svg">
<rect width="32.78" height="30" fill="#EDEDED"/>
<path d="M25.268 25.625C25.268 25.9958 25.1478 26.3584 24.9227 26.6667C24.6976 26.975 24.3776 27.2154 24.0032 27.3573C23.6289 27.4992 23.2169 27.5363 22.8195 27.464C22.4221 27.3916 22.0571 27.213 21.7705 26.9508C21.484 26.6886 21.2889 26.3545 21.2098 25.9908C21.1308 25.6271 21.1714 25.2501 21.3264 24.9075C21.4815 24.5649 21.7441 24.272 22.081 24.066C22.4179 23.86 22.814 23.75 23.2192 23.75C23.7626 23.75 24.2837 23.9475 24.6679 24.2992C25.0521 24.6508 25.268 25.1277 25.268 25.625ZM15.0242 23.75C14.619 23.75 14.2229 23.86 13.886 24.066C13.5491 24.272 13.2865 24.5649 13.1314 24.9075C12.9764 25.2501 12.9358 25.6271 13.0148 25.9908C13.0939 26.3545 13.289 26.6886 13.5755 26.9508C13.8621 27.213 14.2271 27.3916 14.6245 27.464C15.0219 27.5363 15.4339 27.4992 15.8082 27.3573C16.1826 27.2154 16.5026 26.975 16.7277 26.6667C16.9528 26.3584 17.073 25.9958 17.073 25.625C17.073 25.1277 16.8571 24.6508 16.4729 24.2992C16.0887 23.9475 15.5676 23.75 15.0242 23.75Z" fill="#3AC63D"/>
<path d="M24.8582 17.5C25.1317 17.5002 25.3991 17.4253 25.6255 17.2849C25.852 17.1445 26.0272 16.9451 26.1284 16.7125L29.9527 7.9625C30.0352 7.77322 30.0659 7.56835 30.0421 7.36574C30.0183 7.16312 29.9407 6.9689 29.8162 6.8C29.6909 6.63036 29.522 6.49149 29.3243 6.39559C29.1266 6.29969 28.9062 6.24969 28.6825 6.25H10.7628L9.80671 4.075C9.60428 3.60984 9.2539 3.21102 8.80095 2.9302C8.348 2.64939 7.81335 2.49952 7.26626 2.5H4.09752C3.73528 2.5 3.38788 2.6317 3.13173 2.86612C2.87559 3.10054 2.73169 3.41848 2.73169 3.75C2.73169 4.08152 2.87559 4.39946 3.13173 4.63388C3.38788 4.86831 3.73528 5 4.09752 5H7.26626L12.1559 16.25L10.6945 18.8875C10.4876 19.2686 10.3904 19.6916 10.4121 20.1167C10.4338 20.5417 10.5737 20.9547 10.8185 21.3164C11.0633 21.6781 11.405 21.9767 11.8111 22.1838C12.2172 22.3909 12.6744 22.4998 13.1393 22.5H25.9509C26.3131 22.5 26.6605 22.3683 26.9166 22.1339C27.1728 21.8995 27.3167 21.5815 27.3167 21.25C27.3167 20.9185 27.1728 20.6005 26.9166 20.3661C26.6605 20.1317 26.3131 20 25.9509 20H13.1393L14.5052 17.5H24.8582Z" fill="#3AC63D"/>
</svg>
