<svg width="20" height="20" viewBox="0 0 33 30" fill="none" xmlns="http://www.w3.org/2000/svg">
<path d="M31.7556 20.055H30.5213V1.22249C30.5213 0.898268 30.4133 0.587322 30.2212 0.35806C30.0291 0.128798 29.7686 0 29.4969 0H3.28312C3.01144 0 2.75089 0.128798 2.55878 0.35806C2.36667 0.587322 2.25875 0.898268 2.25875 1.22249V20.055H1.02437C0.752694 20.055 0.49214 20.1838 0.300033 20.4131C0.107925 20.6423 0 20.9533 0 21.2775V22.9034C0.00270839 24.7846 0.630082 26.5877 1.74468 27.9179C2.85928 29.2481 4.37022 29.9968 5.9465 30H26.8335C28.4098 29.9968 29.9207 29.2481 31.0353 27.9179C32.1499 26.5877 32.7773 24.7846 32.78 22.9034V21.2775C32.78 20.9533 32.6721 20.6423 32.48 20.4131C32.2879 20.1838 32.0273 20.055 31.7556 20.055ZM28.4725 2.44499V20.055H4.3075V2.44499H28.4725ZM13.1069 22.5H19.6782V23.5575H13.1018L13.1069 22.5ZM30.7312 22.9034C30.7312 24.1371 30.3206 25.3203 29.5896 26.1926C28.8587 27.0649 27.8672 27.555 26.8335 27.555H5.9465C4.91275 27.555 3.92134 27.0649 3.19037 26.1926C2.4594 25.3203 2.04875 24.1371 2.04875 22.9034V22.5H11.053V24.78C11.053 25.1042 11.1609 25.4151 11.353 25.6444C11.5451 25.8736 11.8057 26.0024 12.0774 26.0024H20.7026C20.9743 26.0024 21.2349 25.8736 21.427 25.6444C21.6191 25.4151 21.727 25.1042 21.727 24.78V22.5H30.7312V22.9034Z" fill="#3AC63D"/>
</svg>
