<svg width="20" height="20" viewBox="0 0 66 49" fill="none" xmlns="http://www.w3.org/2000/svg">
<path d="M65.0898 5.07119V5.14365C65.0898 7.82471 53.993 10.0079 33 10.0079C10.9512 10.0079 0.910156 7.82471 0.910156 5.14365V5.01943C0.910156 3.4667 4.36758 2.23486 11.1996 1.36533C17.0379 0.620019 24.7809 0.216309 33 0.216309C41.1984 0.216309 48.9414 0.620019 54.8004 1.36533C61.6324 2.23486 65.0898 3.4667 65.0898 5.01943V5.07119ZM28.4453 5.01943C28.4453 4.58467 25.7125 4.24307 22.3586 4.24307C18.984 4.24307 16.2512 4.58467 16.2512 5.01943C16.2512 5.44385 18.984 5.7958 22.3586 5.7958C25.7125 5.7958 28.4453 5.44385 28.4453 5.01943ZM63.1438 15.1526V8.92094C61.3426 9.60414 58.6098 10.1838 54.9453 10.6496C49.0449 11.4053 41.2605 11.809 33 11.809C24.7395 11.809 16.9551 11.395 11.0547 10.6496C7.39023 10.1838 4.65742 9.61449 2.85625 8.92094V15.1526C1.55195 15.7012 0.910156 16.312 0.910156 16.9848V17.0987C0.910156 19.7797 10.9512 21.9536 33 21.9536C53.993 21.9536 65.0898 19.7797 65.0898 17.0987V16.9848C65.0898 16.312 64.448 15.7012 63.1438 15.1526ZM63.1438 28.4957V20.8873C61.3426 21.5705 58.6098 22.1502 54.9453 22.6161C49.0449 23.3614 41.2605 23.7754 33 23.7754C24.7395 23.7754 16.9551 23.3614 11.0547 22.6161C7.39023 22.1502 4.65742 21.5705 2.85625 20.8873V28.4957C1.55195 29.0444 0.910156 29.6551 0.910156 30.328V30.4211C0.910156 33.1022 10.9512 35.276 33 35.276C53.993 35.276 65.0898 33.1022 65.0898 30.4211V30.328C65.0898 29.6448 64.448 29.034 63.1438 28.4957ZM64.9863 43.5469C64.7586 43.0397 64.1582 42.5739 63.1438 42.1494V34.2305C61.3426 34.9137 58.6098 35.4934 54.9453 35.9592C49.0449 36.7045 41.2605 37.1186 33 37.1186C24.7395 37.1186 16.9551 36.7045 11.0547 35.9592C7.39023 35.4934 4.65742 34.9137 2.85625 34.2305V42.1494C1.8418 42.5739 1.24141 43.0397 1.01367 43.5469C0.951562 43.6711 0.910156 43.8057 0.910156 43.9299V43.9817C0.910156 44.5717 1.38633 45.11 2.35938 45.5965C5.87891 47.4598 15.775 48.7848 33 48.7848C45.4633 48.7848 54.4484 48.0188 59.6863 46.8284C63.268 46.052 65.0898 45.11 65.0898 43.9817V43.9299C65.0898 43.8057 65.0484 43.6711 64.9863 43.5469Z" fill="#6FE86F"/>
</svg>
