<svg width="29" height="28" viewBox="0 0 29 28" fill="none" xmlns="http://www.w3.org/2000/svg">
<path d="M8.88393 7.56686C4.68049 9.20989 1.89187 12.6055 1.87291 16.4283C1.8452 22.014 7.61303 26.3739 14.453 26.3924C21.293 26.4108 27.1041 22.082 27.1318 16.4964C27.1508 12.6735 24.3959 9.26301 20.2089 7.59735L20.6538 6.82966C25.4839 8.65958 28.4691 12.4509 28.449 16.5C28.4202 22.3071 22.2634 27.215 14.4491 27.1939C6.63487 27.1728 0.526853 22.2318 0.55566 16.4247C0.575746 12.3756 3.59848 8.60054 8.44664 6.79679L8.88393 7.56686Z" fill="#0A7ED2" stroke="#0A7ED2"/>
<path d="M16.8168 1.00764L13.1483 0.997925L13.0769 14.9976L16.7454 15.0073L16.8168 1.00764Z" fill="#0A7ED2"/>
<path d="M16.8168 1.00764L13.1483 0.997925L13.0769 14.9976L16.7454 15.0073L16.8168 1.00764Z" stroke="#EDEDED"/>
</svg>
