<svg width="20" height="20" viewBox="0 0 33 30" fill="none" xmlns="http://www.w3.org/2000/svg">
<path d="M27.9996 5.76125C27.2518 4.93324 26.3127 4.26732 25.2499 3.81147C24.1871 3.35561 23.0271 3.12115 21.8533 3.125C19.8451 3.06935 17.8899 3.72024 16.39 4.94375C14.8901 3.72024 12.9349 3.06935 10.9267 3.125C9.75293 3.12115 8.59288 3.35561 7.53007 3.81147C6.46726 4.26732 5.52816 4.93324 4.78042 5.76125C3.47878 7.20625 2.11704 9.8225 3.01986 14.0862C4.46081 20.895 15.2659 26.4825 15.7221 26.7112C15.9255 26.815 16.1544 26.8695 16.3873 26.8695C16.6201 26.8695 16.8491 26.815 17.0524 26.7112C17.5113 26.4775 28.3165 20.89 29.7547 14.0862C30.663 9.8225 29.3012 7.20625 27.9996 5.76125ZM27.079 13.6112C26.0601 18.425 18.6546 22.9025 16.39 24.175C13.1994 22.4125 6.63522 17.9875 5.70782 13.6112C5.00714 10.3037 5.96596 8.3825 6.89473 7.3525C7.38589 6.81014 8.00211 6.37398 8.6992 6.07531C9.3963 5.77664 10.157 5.62286 10.9267 5.625C11.7488 5.56857 12.5728 5.70807 13.3184 6.02988C14.0641 6.35169 14.7059 6.84484 15.1812 7.46125C15.2985 7.65867 15.4714 7.8237 15.682 7.93915C15.8926 8.05459 16.1332 8.11623 16.3787 8.11764C16.6242 8.11904 16.8657 8.06016 17.0778 7.94713C17.29 7.8341 17.4652 7.67106 17.5851 7.475C18.0596 6.85379 18.7027 6.35647 19.4512 6.03206C20.1997 5.70765 21.0276 5.56735 21.8533 5.625C22.6246 5.62156 23.3872 5.77472 24.086 6.07344C24.7849 6.37215 25.4026 6.809 25.8948 7.3525C26.8209 8.3825 27.7797 10.3037 27.079 13.6112Z" fill="#3AC63D"/>
</svg>
