<svg width="20" height="20" viewBox="0 0 40 45" fill="none" xmlns="http://www.w3.org/2000/svg">
<path d="M33.6432 1.54377L2.77749 21.6899C0.225132 23.361 0.46998 27.6355 3.20041 28.9035L11.681 32.8756V39.9633C11.681 43.8598 16.0735 45.4638 18.1065 42.365L21.3562 37.402L29.6588 41.2817C30.0966 41.4833 30.5566 41.5841 31.0166 41.5841C31.625 41.5841 32.226 41.4077 32.7676 41.0634C33.7174 40.4588 34.3703 39.3839 34.5409 38.1662L38.9482 5.65025C39.4008 2.28277 36.2104 -0.127372 33.6432 1.54377ZM15.2425 39.9633V34.5384L17.9581 35.8064L15.2425 39.9633ZM31.0166 37.5532L19.6052 32.2206L30.0075 15.232C30.8014 13.9304 29.3027 12.4188 28.2491 13.4517L12.5566 28.9287L4.5582 25.1833L35.4239 5.02882L31.0166 37.5532Z" fill="#6FE86F" stroke="#6FE86F" stroke-width="1.5625"/>
</svg>
