<svg width="20" height="20" viewBox="0 0 33 30" fill="none" xmlns="http://www.w3.org/2000/svg">
<rect width="32.78" height="30" fill="#EDEDED"/>
<path fill-rule="evenodd" clip-rule="evenodd" d="M14.8802 3.75821C13.9623 2.34633 11.9536 1.82073 10.37 2.67745L8.014 3.91136C6.27623 4.82052 5.68701 6.85911 6.67973 8.43156L6.68044 8.43267C7.19254 9.24126 7.11216 9.75778 6.95232 10.0116C6.79238 10.2656 6.34457 10.5875 5.32673 10.5875C3.32336 10.5875 1.70728 12.0855 1.70728 13.9V16.1C1.70728 17.9147 3.32336 19.4125 5.32673 19.4125C6.34457 19.4125 6.79238 19.7344 6.95232 19.9884C7.11216 20.2423 7.19254 20.7588 6.68044 21.5674L6.67973 21.5685C5.68701 23.141 6.27678 25.1799 8.01456 26.089L10.3702 27.3227C11.9537 28.1793 13.9623 27.6538 14.8802 26.2419L15.0366 25.9948C15.5488 25.1862 16.0799 24.9907 16.4019 24.9907C16.7224 24.9907 17.2495 25.1845 17.7549 25.9913L17.757 25.9948L17.9073 26.2323L17.9134 26.2419C18.8313 27.6538 20.8399 28.1793 22.4234 27.3227L24.7796 26.0888C26.5186 25.1789 27.1041 23.1544 26.1164 21.5724L26.1132 21.5674C25.601 20.7588 25.6815 20.2423 25.8413 19.9884C26.0012 19.7344 26.4491 19.4125 27.4669 19.4125C29.4703 19.4125 31.0863 17.9147 31.0863 16.1V13.9C31.0863 12.0666 29.4495 10.5875 27.4669 10.5875C26.4491 10.5875 26.0012 10.2656 25.8413 10.0116C25.6815 9.75778 25.601 9.24126 26.1132 8.43267L26.1139 8.43156C27.1067 6.85895 26.5172 4.82008 24.7791 3.91107L22.4235 2.67745C20.84 1.82073 18.8313 2.34628 17.9134 3.75817L17.757 4.00532C17.2449 4.81397 16.7137 5.00942 16.3916 5.00942C16.0712 5.00942 15.5441 4.81562 15.0388 4.0088L15.0366 4.00532L14.8863 3.7678L14.8802 3.75821ZM20.4875 15C20.4875 17.0712 18.653 18.75 16.39 18.75C14.1269 18.75 12.2925 17.0712 12.2925 15C12.2925 12.9289 14.1269 11.25 16.39 11.25C18.653 11.25 20.4875 12.9289 20.4875 15Z" fill="#3AC63D"/>
</svg>
