<svg width="20" height="20" viewBox="0 0 33 30" fill="none" xmlns="http://www.w3.org/2000/svg">
<path d="M10.0137 0C8.82219 0 8.82947 0.999943 10.0137 0.999943H22.4795C23.7913 0.999943 23.8095 1.40792 23.4888 1.7699L16.4926 9.26947C16.1792 9.60345 16.6201 9.99943 17.3015 9.99943H30.1863C30.4596 9.99943 30.7748 10.0924 30.8969 10.2474C31.0244 10.4024 31.0699 10.6904 30.3721 11.1974L7.88206 27.5684L10.9138 17.581C11.0049 17.276 10.5767 16.998 10.0137 16.999H2.79884C1.78402 16.999 1.70567 16.835 1.87876 16.0651L5.44977 1.56591C5.61374 0.905948 3.80455 0.771956 3.64604 1.43392L0.0713887 15.9331C-0.0652571 16.4891 -0.0379287 16.981 0.441243 17.393C0.922236 17.806 1.8405 17.999 2.79702 17.999H8.93332L5.46981 29.4163C5.31312 29.9323 6.52289 30.2163 7.09498 29.7993L31.8279 11.8003C32.7826 11.1064 32.9994 10.3944 32.5676 9.85044C32.1303 9.30647 31.1647 9.00049 30.1845 9.00049H18.79L25.1067 2.23087C25.4493 1.86289 25.6825 1.37492 25.3254 0.87095C24.9664 0.362979 23.897 0 22.4758 0H10.0137Z" fill="#3AC63D"/>
</svg>
